{
    "asset" : {
        "generator" : "Khronos glTF Blender I/O v3.3.32",
        "version" : "2.0"
    },
    "scene" : 0,
    "scenes" : [
        {
            "name" : "Scene",
            "nodes" : [
                0
            ]
        }
    ],
    "nodes" : [
        {
            "mesh" : 0,
            "name" : "Cylinder",
            "scale" : [
                0.3744232654571533,
                0.3744232654571533,
                0.3744232654571533
            ],
            "translation" : [
                0.01487278938293457,
                0.3876204192638397,
                -4.452224254608154
            ]
        }
    ],
    "materials" : [
        {
            "doubleSided" : true,
            "name" : "trunkMat",
            "pbrMetallicRoughness" : {
                "baseColorFactor" : [
                    0.2875046133995056,
                    0.06592272967100143,
                    0.033609602600336075,
                    1
                ],
                "metallicFactor" : 0
            }
        },
        {
            "doubleSided" : true,
            "name" : "leafMat",
            "pbrMetallicRoughness" : {
                "baseColorFactor" : [
                    0.29667603969573975,
                    0.2732169032096863,
                    0.07351610064506531,
                    1
                ],
                "metallicFactor" : 0,
                "roughnessFactor" : 0.6454545259475708
            }
        }
    ],
    "meshes" : [
        {
            "name" : "Cylinder",
            "primitives" : [
                {
                    "attributes" : {
                        "POSITION" : 0,
                        "NORMAL" : 1,
                        "TEXCOORD_0" : 2
                    },
                    "indices" : 3,
                    "material" : 0
                },
                {
                    "attributes" : {
                        "POSITION" : 4,
                        "NORMAL" : 5,
                        "TEXCOORD_0" : 6
                    },
                    "indices" : 7,
                    "material" : 1
                }
            ]
        }
    ],
    "accessors" : [
        {
            "bufferView" : 0,
            "componentType" : 5126,
            "count" : 60,
            "max" : [
                0.9510565400123596,
                1.9822368621826172,
                1
            ],
            "min" : [
                -0.9510565400123596,
                -1,
                -1
            ],
            "type" : "VEC3"
        },
        {
            "bufferView" : 1,
            "componentType" : 5126,
            "count" : 60,
            "type" : "VEC3"
        },
        {
            "bufferView" : 2,
            "componentType" : 5126,
            "count" : 60,
            "type" : "VEC2"
        },
        {
            "bufferView" : 3,
            "componentType" : 5123,
            "count" : 108,
            "type" : "SCALAR"
        },
        {
            "bufferView" : 4,
            "componentType" : 5126,
            "count" : 200,
            "max" : [
                2.961912155151367,
                7.796792030334473,
                3.138195276260376
            ],
            "min" : [
                -3.0834243297576904,
                1.516240119934082,
                -3.2182464599609375
            ],
            "type" : "VEC3"
        },
        {
            "bufferView" : 5,
            "componentType" : 5126,
            "count" : 200,
            "type" : "VEC3"
        },
        {
            "bufferView" : 6,
            "componentType" : 5126,
            "count" : 200,
            "type" : "VEC2"
        },
        {
            "bufferView" : 7,
            "componentType" : 5123,
            "count" : 270,
            "type" : "SCALAR"
        }
    ],
    "bufferViews" : [
        {
            "buffer" : 0,
            "byteLength" : 720,
            "byteOffset" : 0,
            "target" : 34962
        },
        {
            "buffer" : 0,
            "byteLength" : 720,
            "byteOffset" : 720,
            "target" : 34962
        },
        {
            "buffer" : 0,
            "byteLength" : 480,
            "byteOffset" : 1440,
            "target" : 34962
        },
        {
            "buffer" : 0,
            "byteLength" : 216,
            "byteOffset" : 1920,
            "target" : 34963
        },
        {
            "buffer" : 0,
            "byteLength" : 2400,
            "byteOffset" : 2136,
            "target" : 34962
        },
        {
            "buffer" : 0,
            "byteLength" : 2400,
            "byteOffset" : 4536,
            "target" : 34962
        },
        {
            "buffer" : 0,
            "byteLength" : 1600,
            "byteOffset" : 6936,
            "target" : 34962
        },
        {
            "buffer" : 0,
            "byteLength" : 540,
            "byteOffset" : 8536,
            "target" : 34963
        }
    ],
    "buffers" : [
        {
            "byteLength" : 9076,
            "uri" : "data:application/octet-stream;base64,"
        }
    ]
}
