{
    "asset" : {
        "generator" : "Khronos glTF Blender I/O v3.3.32",
        "version" : "2.0"
    },
    "scene" : 0,
    "scenes" : [
        {
            "name" : "Scene",
            "nodes" : [
                0
            ]
        }
    ],
    "nodes" : [
        {
            "mesh" : 0,
            "name" : "Cube"
        }
    ],
    "meshes" : [
        {
            "name" : "Cube.001",
            "primitives" : [
                {
                    "attributes" : {
                        "POSITION" : 0,
                        "NORMAL" : 1,
                        "TEXCOORD_0" : 2
                    },
                    "indices" : 3
                }
            ]
        }
    ],
    "accessors" : [
        {
            "bufferView" : 0,
            "componentType" : 5126,
            "count" : 6036,
            "max" : [
                29.802907943725586,
                81.49392700195312,
                6.6013383865356445
            ],
            "min" : [
                -29.802907943725586,
                -1.7159643173217773,
                -7.542669296264648
            ],
            "type" : "VEC3"
        },
        {
            "bufferView" : 1,
            "componentType" : 5126,
            "count" : 6036,
            "type" : "VEC3"
        },
        {
            "bufferView" : 2,
            "componentType" : 5126,
            "count" : 6036,
            "type" : "VEC2"
        },
        {
            "bufferView" : 3,
            "componentType" : 5123,
            "count" : 9477,
            "type" : "SCALAR"
        }
    ],
    "bufferViews" : [
        {
            "buffer" : 0,
            "byteLength" : 72432,
            "byteOffset" : 0,
            "target" : 34962
        },
        {
            "buffer" : 0,
            "byteLength" : 72432,
            "byteOffset" : 72432,
            "target" : 34962
        },
        {
            "buffer" : 0,
            "byteLength" : 48288,
            "byteOffset" : 144864,
            "target" : 34962
        },
        {
            "buffer" : 0,
            "byteLength" : 18954,
            "byteOffset" : 193152,
            "target" : 34963
        }
    ],
    "buffers" : [
        {
            "byteLength" : 212108,
            "uri" : "data:application/octet-stream;base64,"
        }
    ]
}
